<?xml version="1.0" standalone="no"?>
<!DOCTYPE svg PUBLIC "-//W3C//DTD SVG 20010904//EN"
 "http://www.w3.org/TR/2001/REC-SVG-20010904/DTD/svg10.dtd">
<svg version="1.0" xmlns="http://www.w3.org/2000/svg"
 width="500.000000pt" height="500.000000pt" viewBox="0 0 500.000000 500.000000"
 preserveAspectRatio="xMidYMid meet">
<metadata>
Created by potrace 1.14, written by Peter Selinger 2001-2017
</metadata>
<g transform="translate(0.000000,500.000000) scale(0.100000,-0.100000)"
fill="#000000" stroke="none">
<path d="M2271 3819 c-623 -55 -1233 -310 -1696 -709 -116 -101 -144 -131
-154 -166 -24 -87 70 -176 153 -144 16 6 75 55 130 108 455 437 994 694 1646
783 155 22 556 17 720 -9 529 -81 940 -253 1375 -574 79 -59 80 -59 30 -12
-115 109 -299 241 -480 345 -318 183 -713 314 -1095 364 -150 20 -485 27 -629
14z"/>
<path d="M2860 3208 c-205 -16 -357 -109 -444 -268 -15 -28 -26 -53 -24 -55 4
-4 882 150 903 158 6 3 9 26 7 55 l-4 50 -62 20 c-115 38 -242 52 -376 40z"/>
<path d="M1425 3168 c-166 -451 -475 -1302 -473 -1303 5 -5 391 143 398 152 4
4 28 94 54 198 67 270 65 265 79 259 8 -3 28 47 61 151 27 86 53 158 57 161 4
2 10 -9 14 -25 3 -16 29 -96 56 -178 53 -156 80 -251 99 -345 6 -32 14 -58 18
-58 4 0 76 26 161 59 l153 58 -170 68 c-94 38 -169 71 -167 75 2 3 60 20 129
36 69 16 126 34 126 39 0 9 -140 396 -216 598 l-26 67 -174 0 c-131 0 -176 -3
-179 -12z"/>
<path d="M3480 3130 c0 -60 -8 -58 149 -29 62 11 115 19 117 16 2 -2 -56 -22
-129 -44 l-132 -40 -3 -647 -2 -646 474 0 473 0 22 138 c12 75 21 145 21 155
0 16 -22 17 -320 17 l-320 0 0 565 0 565 -175 0 -175 0 0 -50z"/>
<path d="M4560 3015 c19 -19 36 -35 39 -35 3 0 -10 16 -29 35 -19 19 -36 35
-39 35 -3 0 10 -16 29 -35z"/>
<path d="M3210 2949 c-133 -41 -132 -40 -64 -54 33 -7 84 -23 113 -35 28 -13
54 -21 56 -18 3 3 2 34 -2 70 l-8 66 -95 -29z"/>
<path d="M2371 2837 c-10 -27 -37 -155 -46 -216 -5 -42 -5 -43 17 -37 13 3 93
22 178 42 85 20 160 41 167 48 6 6 15 23 18 37 6 25 3 27 -112 69 -65 23 -139
51 -166 61 l-48 19 -8 -23z"/>
<path d="M2485 2491 l-160 -38 0 -49 0 -49 143 -59 c78 -33 140 -61 138 -63
-2 -2 -59 -17 -126 -33 -67 -16 -124 -31 -127 -33 -8 -8 25 -105 59 -175 65
-132 203 -233 363 -267 91 -19 252 -19 351 0 88 17 174 43 174 53 0 4 11 76
24 160 13 83 21 152 18 152 -3 0 -33 -11 -67 -25 -85 -34 -235 -59 -309 -51
-86 9 -131 25 -176 64 -75 64 -109 170 -111 346 -1 91 -4 106 -18 105 -9 0
-88 -18 -176 -38z"/>
<path d="M1973 2081 c-83 -20 -155 -40 -159 -44 -5 -4 2 -10 14 -14 18 -4 29
-29 66 -142 l44 -136 185 -3 186 -2 -25 67 c-15 38 -43 115 -64 173 -21 58
-41 113 -45 123 -9 23 -25 21 -202 -22z"/>
<path d="M1137 1884 c-97 -23 -182 -44 -188 -46 -6 -2 -19 -25 -29 -51 l-18
-47 181 2 181 3 28 89 c15 49 27 90 25 91 -1 1 -82 -18 -180 -41z"/>
</g>
</svg>
